<mxfile host="app.diagrams.net" agent="Mozilla/5.0 (Windows NT 10.0; Win64; x64; rv:138.0) Gecko/20100101 Firefox/138.0" version="27.1.4">
  <diagram name="Page-1" id="4tOXoyzTGzTHZ8qvR4KX">
    <mxGraphModel dx="1662" dy="973" grid="1" gridSize="10" guides="1" tooltips="1" connect="1" arrows="1" fold="1" page="1" pageScale="1" pageWidth="1654" pageHeight="1169" math="0" shadow="0">
      <root>
        <mxCell id="0" />
        <mxCell id="1" parent="0" />
        <mxCell id="fIGQkDf6deLxDd5C9NF3-34" value="2a Prediction Making" style="text;html=1;align=left;verticalAlign=top;whiteSpace=wrap;rounded=0;dashed=1;fillColor=#d5e8d4;strokeColor=#82b366;strokeWidth=2;" name="text" vertex="1" parent="1">
          <mxGeometry x="470" y="800" width="357" height="180" as="geometry" />
        </mxCell>
        <mxCell id="fIGQkDf6deLxDd5C9NF3-33" value="1c Expert Knowledge (Optional)" style="text;html=1;align=left;verticalAlign=top;whiteSpace=wrap;rounded=0;dashed=1;fillColor=#ffe6cc;strokeColor=#d79b00;strokeWidth=2;" name="text" vertex="1" parent="1">
          <mxGeometry x="840" y="610" width="340" height="120" as="geometry" />
        </mxCell>
        <mxCell id="fIGQkDf6deLxDd5C9NF3-32" value="1a Train ML Model" style="text;html=1;align=right;verticalAlign=top;whiteSpace=wrap;rounded=0;dashed=1;fillColor=#dae8fc;strokeColor=#6c8ebf;strokeWidth=2;" name="text" vertex="1" parent="1">
          <mxGeometry x="580" y="550" width="250" height="240" as="geometry" />
        </mxCell>
        <mxCell id="fIGQkDf6deLxDd5C9NF3-31" value="1d ML Feature Extraction" style="text;html=1;align=left;verticalAlign=top;whiteSpace=wrap;rounded=0;dashed=1;fillColor=#f8cecc;strokeColor=#b85450;strokeWidth=2;" name="text" vertex="1" parent="1">
          <mxGeometry x="580" y="350" width="400" height="190" as="geometry" />
        </mxCell>
        <mxCell id="fIGQkDf6deLxDd5C9NF3-30" value="1d Pre-processing" style="text;html=1;align=left;verticalAlign=top;whiteSpace=wrap;rounded=0;dashed=1;fillColor=#ffe6cc;strokeColor=#d79b00;strokeWidth=2;" name="text" vertex="1" parent="1">
          <mxGeometry x="580" y="185" width="400" height="155" as="geometry" />
        </mxCell>
        <mxCell id="fIGQkDf6deLxDd5C9NF3-2" style="edgeStyle=orthogonalEdgeStyle;rounded=0;orthogonalLoop=1;jettySize=auto;html=1;exitX=1;exitY=0.5;exitDx=0;exitDy=0;entryX=0;entryY=0.5;entryDx=0;entryDy=0;" edge="1" source="fIGQkDf6deLxDd5C9NF3-3" target="fIGQkDf6deLxDd5C9NF3-5" parent="1">
          <mxGeometry relative="1" as="geometry" />
        </mxCell>
        <mxCell id="fIGQkDf6deLxDd5C9NF3-3" value="data" style="rectangle;fillColor=#fff2cc;strokeColor=#d6b656;" name="data" vertex="1" parent="1">
          <mxGeometry x="548" y="215" width="100" height="50" as="geometry" />
        </mxCell>
        <mxCell id="fIGQkDf6deLxDd5C9NF3-4" style="edgeStyle=orthogonalEdgeStyle;rounded=0;orthogonalLoop=1;jettySize=auto;html=1;exitX=1;exitY=0.5;exitDx=0;exitDy=0;" edge="1" source="fIGQkDf6deLxDd5C9NF3-5" target="fIGQkDf6deLxDd5C9NF3-6" parent="1">
          <mxGeometry relative="1" as="geometry" />
        </mxCell>
        <mxCell id="fIGQkDf6deLxDd5C9NF3-5" value="transform" style="rounded=1;whiteSpace=wrap;html=1;arcSize=50;fillColor=#f8cecc;strokeColor=#b85450;" name="transform" vertex="1" parent="1">
          <mxGeometry x="728" y="215" width="100" height="50" as="geometry" />
        </mxCell>
        <mxCell id="fIGQkDf6deLxDd5C9NF3-8" style="edgeStyle=orthogonalEdgeStyle;rounded=0;orthogonalLoop=1;jettySize=auto;html=1;exitX=0.5;exitY=1;exitDx=0;exitDy=0;entryX=1;entryY=0.5;entryDx=0;entryDy=0;" edge="1" parent="1" source="fIGQkDf6deLxDd5C9NF3-6" target="fIGQkDf6deLxDd5C9NF3-7">
          <mxGeometry relative="1" as="geometry" />
        </mxCell>
        <mxCell id="fIGQkDf6deLxDd5C9NF3-6" value="data" style="rectangle;fillColor=#fff2cc;strokeColor=#d6b656;" name="data" vertex="1" parent="1">
          <mxGeometry x="858" y="315" width="100" height="50" as="geometry" />
        </mxCell>
        <mxCell id="fIGQkDf6deLxDd5C9NF3-10" style="edgeStyle=orthogonalEdgeStyle;rounded=0;orthogonalLoop=1;jettySize=auto;html=1;exitX=0;exitY=0.5;exitDx=0;exitDy=0;" edge="1" parent="1" source="fIGQkDf6deLxDd5C9NF3-7" target="fIGQkDf6deLxDd5C9NF3-9">
          <mxGeometry relative="1" as="geometry" />
        </mxCell>
        <mxCell id="fIGQkDf6deLxDd5C9NF3-7" value="transform" style="rounded=1;whiteSpace=wrap;html=1;arcSize=50;fillColor=#f8cecc;strokeColor=#b85450;" name="transform" vertex="1" parent="1">
          <mxGeometry x="728" y="415" width="100" height="50" as="geometry" />
        </mxCell>
        <mxCell id="fIGQkDf6deLxDd5C9NF3-12" style="edgeStyle=orthogonalEdgeStyle;rounded=0;orthogonalLoop=1;jettySize=auto;html=1;exitX=0.5;exitY=1;exitDx=0;exitDy=0;entryX=0.5;entryY=0;entryDx=0;entryDy=0;" edge="1" parent="1" source="fIGQkDf6deLxDd5C9NF3-9" target="fIGQkDf6deLxDd5C9NF3-11">
          <mxGeometry relative="1" as="geometry" />
        </mxCell>
        <mxCell id="fIGQkDf6deLxDd5C9NF3-9" value="data" style="rectangle;fillColor=#fff2cc;strokeColor=#d6b656;" name="data" vertex="1" parent="1">
          <mxGeometry x="598" y="515" width="100" height="50" as="geometry" />
        </mxCell>
        <mxCell id="fIGQkDf6deLxDd5C9NF3-17" style="edgeStyle=orthogonalEdgeStyle;rounded=0;orthogonalLoop=1;jettySize=auto;html=1;exitX=0.5;exitY=1;exitDx=0;exitDy=0;entryX=0.5;entryY=0;entryDx=0;entryDy=0;" edge="1" parent="1" source="fIGQkDf6deLxDd5C9NF3-11" target="fIGQkDf6deLxDd5C9NF3-16">
          <mxGeometry relative="1" as="geometry" />
        </mxCell>
        <mxCell id="fIGQkDf6deLxDd5C9NF3-11" value="infer:deduce" style="rounded=1;whiteSpace=wrap;html=1;arcSize=50;fillColor=#bac8d3;strokeColor=#23445d;" name="infer:deduce" vertex="1" parent="1">
          <mxGeometry x="598" y="645" width="100" height="50" as="geometry" />
        </mxCell>
        <mxCell id="fIGQkDf6deLxDd5C9NF3-14" style="edgeStyle=orthogonalEdgeStyle;rounded=0;orthogonalLoop=1;jettySize=auto;html=1;entryX=1;entryY=0.5;entryDx=0;entryDy=0;" edge="1" parent="1" source="fIGQkDf6deLxDd5C9NF3-13" target="fIGQkDf6deLxDd5C9NF3-11">
          <mxGeometry relative="1" as="geometry" />
        </mxCell>
        <mxCell id="fIGQkDf6deLxDd5C9NF3-13" value="symbol" style="rectangle;fillColor=#dae8fc;strokeColor=#6c8ebf;" name="symbol" vertex="1" parent="1">
          <mxGeometry x="778" y="645" width="100" height="50" as="geometry" />
        </mxCell>
        <mxCell id="fIGQkDf6deLxDd5C9NF3-23" style="edgeStyle=orthogonalEdgeStyle;rounded=0;orthogonalLoop=1;jettySize=auto;html=1;exitX=0.5;exitY=1;exitDx=0;exitDy=0;entryX=0.5;entryY=0;entryDx=0;entryDy=0;" edge="1" parent="1" source="fIGQkDf6deLxDd5C9NF3-16" target="fIGQkDf6deLxDd5C9NF3-22">
          <mxGeometry relative="1" as="geometry" />
        </mxCell>
        <object label="model" tooltip="case-based&#xa;dynamic&#xa;hybrid&#xa;ML&#xa;rule-based&#xa;semantic&#xa;static&#xa;statisic&#xa;statistical" id="fIGQkDf6deLxDd5C9NF3-16">
          <mxCell style="shape=hexagon;perimeter=hexagonPerimeter2;fillColor=#b0e3e6;strokeColor=#0e8088;" name="model" vertex="1" parent="1">
            <mxGeometry x="588" y="775" width="120" height="50" as="geometry" />
          </mxCell>
        </object>
        <mxCell id="fIGQkDf6deLxDd5C9NF3-19" style="edgeStyle=orthogonalEdgeStyle;rounded=0;orthogonalLoop=1;jettySize=auto;html=1;entryX=1;entryY=0.5;entryDx=0;entryDy=0;" edge="1" parent="1" source="fIGQkDf6deLxDd5C9NF3-18" target="fIGQkDf6deLxDd5C9NF3-13">
          <mxGeometry relative="1" as="geometry" />
        </mxCell>
        <mxCell id="fIGQkDf6deLxDd5C9NF3-18" value="generate:engineer" style="rounded=1;whiteSpace=wrap;html=1;arcSize=50;fillColor=#e1d5e7;strokeColor=#9673a6;" name="generate:engineer" vertex="1" parent="1">
          <mxGeometry x="958" y="645" width="100" height="50" as="geometry" />
        </mxCell>
        <mxCell id="fIGQkDf6deLxDd5C9NF3-21" style="edgeStyle=orthogonalEdgeStyle;rounded=0;orthogonalLoop=1;jettySize=auto;html=1;entryX=1;entryY=0.5;entryDx=0;entryDy=0;" edge="1" parent="1" source="fIGQkDf6deLxDd5C9NF3-20" target="fIGQkDf6deLxDd5C9NF3-18">
          <mxGeometry relative="1" as="geometry" />
        </mxCell>
        <mxCell id="fIGQkDf6deLxDd5C9NF3-20" value="actor" style="triangle;fillColor=#ffe6cc;strokeColor=#d79b00;" name="actor" vertex="1" parent="1">
          <mxGeometry x="1135" y="645" width="100" height="50" as="geometry" />
        </mxCell>
        <mxCell id="fIGQkDf6deLxDd5C9NF3-29" style="edgeStyle=orthogonalEdgeStyle;rounded=0;orthogonalLoop=1;jettySize=auto;html=1;exitX=1;exitY=0.5;exitDx=0;exitDy=0;entryX=0;entryY=0.5;entryDx=0;entryDy=0;" edge="1" parent="1" source="fIGQkDf6deLxDd5C9NF3-22" target="fIGQkDf6deLxDd5C9NF3-27">
          <mxGeometry relative="1" as="geometry" />
        </mxCell>
        <mxCell id="fIGQkDf6deLxDd5C9NF3-22" value="infer:deduce" style="rounded=1;whiteSpace=wrap;html=1;arcSize=50;fillColor=#bac8d3;strokeColor=#23445d;" name="infer:deduce" vertex="1" parent="1">
          <mxGeometry x="598" y="905" width="100" height="50" as="geometry" />
        </mxCell>
        <mxCell id="fIGQkDf6deLxDd5C9NF3-26" style="edgeStyle=orthogonalEdgeStyle;rounded=0;orthogonalLoop=1;jettySize=auto;html=1;exitX=1;exitY=0.5;exitDx=0;exitDy=0;entryX=0;entryY=0.5;entryDx=0;entryDy=0;" edge="1" parent="1" source="fIGQkDf6deLxDd5C9NF3-24" target="fIGQkDf6deLxDd5C9NF3-22">
          <mxGeometry relative="1" as="geometry" />
        </mxCell>
        <mxCell id="fIGQkDf6deLxDd5C9NF3-24" value="data" style="rectangle;fillColor=#fff2cc;strokeColor=#d6b656;" name="data" vertex="1" parent="1">
          <mxGeometry x="418" y="905" width="100" height="50" as="geometry" />
        </mxCell>
        <mxCell id="fIGQkDf6deLxDd5C9NF3-27" value="symbol" style="rectangle;fillColor=#dae8fc;strokeColor=#6c8ebf;" name="symbol" vertex="1" parent="1">
          <mxGeometry x="778" y="905" width="100" height="50" as="geometry" />
        </mxCell>
      </root>
    </mxGraphModel>
  </diagram>
</mxfile>
